<svg width="457" height="151" viewBox="0 0 457 151" fill="none" xmlns="http://www.w3.org/2000/svg">
<g clip-path="url(#clip0_538_13594)">
<path d="M42.1441 119.016C18.8597 119.016 5.23828 100.875 5.23828 75.9894C5.23828 51.2202 19.0925 32.7305 42.3769 32.7305C62.1687 32.7305 72.4138 44.5918 75.4408 59.9417L64.9628 60.6394C62.8672 49.941 56.464 42.4986 42.3769 42.4986C23.5165 42.4986 15.7163 58.0811 15.7163 75.9894C15.7163 94.8279 23.8658 109.248 42.3769 109.248C57.0461 109.248 66.127 98.084 66.3599 84.9435H42.6098V75.4079H75.6736V117.155H68.2226L67.7569 103.317C63.6822 112.62 53.437 119.016 42.1441 119.016ZM91.9953 117.155V55.5228H100.611L100.96 66.919C103.172 59.1277 108.062 55.5228 115.629 55.5228H121.683V64.8258H115.745C106.432 64.8258 101.775 69.8261 101.775 79.9431V117.155H91.9953ZM149.259 118.551C136.453 118.551 128.42 112.387 128.42 101.805C128.42 91.3393 134.357 85.5249 147.862 82.9666L169.75 78.8965C169.75 68.547 164.86 63.4303 155.08 63.4303C146.465 63.4303 141.692 67.3841 139.829 74.4776L129.468 73.6636C131.796 62.0349 141.11 54.1273 155.08 54.1273C170.914 54.1273 179.529 63.6629 179.529 79.2454V104.712C179.529 107.503 180.46 108.55 182.789 108.55H185.234V117.155C184.535 117.271 183.022 117.388 181.508 117.388C174.057 117.388 170.681 114.48 169.866 107.62C166.839 114.015 158.34 118.551 149.259 118.551ZM150.191 109.945C162.531 109.945 169.75 102.038 169.75 91.8045V87.3855L149.725 91.1067C141.343 92.6185 138.665 95.7582 138.665 100.875C138.665 106.689 142.973 109.945 150.191 109.945ZM197.734 134.598V125.993H204.836C209.144 125.993 210.89 124.714 212.054 121.807L214.266 115.992H210.89L188.304 55.5228H199.015L217.41 106.922L234.989 55.5228H245.7L220.669 124.946C218.341 131.575 214.033 134.598 205.767 134.598H197.734ZM285.906 118.551C277.291 118.551 270.305 114.597 266.813 107.852L266.463 117.155H257.615V34.5911H267.395V64.1281C270.422 59.0114 277.291 54.1273 285.906 54.1273C302.205 54.1273 312.45 66.5701 312.45 86.3389C312.45 106.108 302.205 118.551 285.906 118.551ZM285.324 109.248C295.685 109.248 302.205 100.41 302.205 86.3389C302.205 72.0356 295.685 63.4303 285.557 63.4303C274.147 63.4303 267.395 72.0356 267.395 86.3389C267.395 100.41 274.147 109.248 285.324 109.248ZM318.378 117.155L341.08 85.5249L319.542 55.5228H330.952L347.134 78.7803L362.851 55.5228H374.493L353.188 85.7575L375.541 117.155H364.132L347.134 92.2696L330.02 117.155H318.378Z" fill="#040404"/>
<path d="M398.354 59.0117C399.074 59.0117 399.657 58.4288 399.657 57.7099C399.657 56.991 399.074 56.4082 398.354 56.4082C397.634 56.4082 397.051 56.991 397.051 57.7099C397.051 58.4288 397.634 59.0117 398.354 59.0117Z" fill="#040404"/>
<path d="M398.354 78.1034C399.074 78.1034 399.657 77.5206 399.657 76.8017C399.657 76.0828 399.074 75.5 398.354 75.5C397.634 75.5 397.051 76.0828 397.051 76.8017C397.051 77.5206 397.634 78.1034 398.354 78.1034Z" fill="#040404"/>
<path d="M398.354 97.1952C399.074 97.1952 399.657 96.6124 399.657 95.8935C399.657 95.1746 399.074 94.5918 398.354 94.5918C397.634 94.5918 397.051 95.1746 397.051 95.8935C397.051 96.6124 397.634 97.1952 398.354 97.1952Z" fill="#040404"/>
<path d="M398.354 116.287C399.074 116.287 399.657 115.704 399.657 114.985C399.657 114.266 399.074 113.684 398.354 113.684C397.634 113.684 397.051 114.266 397.051 114.985C397.051 115.704 397.634 116.287 398.354 116.287Z" fill="#040404"/>
<path d="M398.354 68.5566C399.074 68.5566 399.657 67.9738 399.657 67.2548C399.657 66.5359 399.074 65.9531 398.354 65.9531C397.634 65.9531 397.051 66.5359 397.051 67.2548C397.051 67.9738 397.634 68.5566 398.354 68.5566Z" fill="#040404"/>
<path d="M398.354 87.6503C399.074 87.6503 399.657 87.0675 399.657 86.3486C399.657 85.6297 399.074 85.0469 398.354 85.0469C397.634 85.0469 397.051 85.6297 397.051 86.3486C397.051 87.0675 397.634 87.6503 398.354 87.6503Z" fill="#040404"/>
<path d="M398.354 106.742C399.074 106.742 399.657 106.159 399.657 105.44C399.657 104.721 399.074 104.139 398.354 104.139C397.634 104.139 397.051 104.721 397.051 105.44C397.051 106.159 397.634 106.742 398.354 106.742Z" fill="#040404"/>
<path d="M427.026 59.0117C427.746 59.0117 428.329 58.4288 428.329 57.7099C428.329 56.991 427.746 56.4082 427.026 56.4082C426.306 56.4082 425.723 56.991 425.723 57.7099C425.723 58.4288 426.306 59.0117 427.026 59.0117Z" fill="#040404"/>
<path d="M427.025 79.8384C428.705 79.8384 430.066 78.4785 430.066 76.801C430.066 75.1235 428.705 73.7637 427.025 73.7637C425.346 73.7637 423.984 75.1235 423.984 76.801C423.984 78.4785 425.346 79.8384 427.025 79.8384Z" fill="#040404"/>
<path d="M427.025 98.9302C428.705 98.9302 430.066 97.5703 430.066 95.8928C430.066 94.2153 428.705 92.8555 427.025 92.8555C425.346 92.8555 423.984 94.2153 423.984 95.8928C423.984 97.5703 425.346 98.9302 427.025 98.9302Z" fill="#040404"/>
<path d="M427.026 116.287C427.746 116.287 428.329 115.704 428.329 114.985C428.329 114.266 427.746 113.684 427.026 113.684C426.306 113.684 425.723 114.266 425.723 114.985C425.723 115.704 426.306 116.287 427.026 116.287Z" fill="#040404"/>
<path d="M427.026 69.425C428.225 69.425 429.198 68.4537 429.198 67.2555C429.198 66.0573 428.225 65.0859 427.026 65.0859C425.826 65.0859 424.854 66.0573 424.854 67.2555C424.854 68.4537 425.826 69.425 427.026 69.425Z" fill="#040404"/>
<path d="M427.026 87.6503C427.746 87.6503 428.329 87.0675 428.329 86.3486C428.329 85.6297 427.746 85.0469 427.026 85.0469C426.306 85.0469 425.723 85.6297 425.723 86.3486C425.723 87.0675 426.306 87.6503 427.026 87.6503Z" fill="#040404"/>
<path d="M427.026 107.609C428.225 107.609 429.198 106.637 429.198 105.439C429.198 104.241 428.225 103.27 427.026 103.27C425.826 103.27 424.854 104.241 424.854 105.439C424.854 106.637 425.826 107.609 427.026 107.609Z" fill="#040404"/>
<path d="M407.911 59.0117C408.63 59.0117 409.214 58.4288 409.214 57.7099C409.214 56.991 408.63 56.4082 407.911 56.4082C407.191 56.4082 406.607 56.991 406.607 57.7099C406.607 58.4288 407.191 59.0117 407.911 59.0117Z" fill="#040404"/>
<path d="M407.912 78.9719C409.112 78.9719 410.084 78.0006 410.084 76.8024C410.084 75.6041 409.112 74.6328 407.912 74.6328C406.713 74.6328 405.74 75.6041 405.74 76.8024C405.74 78.0006 406.713 78.9719 407.912 78.9719Z" fill="#040404"/>
<path d="M407.912 98.0637C409.112 98.0637 410.084 97.0924 410.084 95.8941C410.084 94.6959 409.112 93.7246 407.912 93.7246C406.713 93.7246 405.74 94.6959 405.74 95.8941C405.74 97.0924 406.713 98.0637 407.912 98.0637Z" fill="#040404"/>
<path d="M407.911 116.287C408.63 116.287 409.214 115.704 409.214 114.985C409.214 114.266 408.63 113.684 407.911 113.684C407.191 113.684 406.607 114.266 406.607 114.985C406.607 115.704 407.191 116.287 407.911 116.287Z" fill="#040404"/>
<path d="M407.912 69.425C409.112 69.425 410.084 68.4537 410.084 67.2555C410.084 66.0573 409.112 65.0859 407.912 65.0859C406.713 65.0859 405.74 66.0573 405.74 67.2555C405.74 68.4537 406.713 69.425 407.912 69.425Z" fill="#040404"/>
<path d="M407.912 88.5168C409.112 88.5168 410.084 87.5455 410.084 86.3473C410.084 85.1491 409.112 84.1777 407.912 84.1777C406.713 84.1777 405.74 85.1491 405.74 86.3473C405.74 87.5455 406.713 88.5168 407.912 88.5168Z" fill="#040404"/>
<path d="M407.912 107.609C409.112 107.609 410.084 106.637 410.084 105.439C410.084 104.241 409.112 103.27 407.912 103.27C406.713 103.27 405.74 104.241 405.74 105.439C405.74 106.637 406.713 107.609 407.912 107.609Z" fill="#040404"/>
<path d="M436.583 59.0117C437.302 59.0117 437.886 58.4288 437.886 57.7099C437.886 56.991 437.302 56.4082 436.583 56.4082C435.863 56.4082 435.279 56.991 435.279 57.7099C435.279 58.4288 435.863 59.0117 436.583 59.0117Z" fill="#040404"/>
<path d="M436.582 79.8384C438.261 79.8384 439.623 78.4785 439.623 76.801C439.623 75.1235 438.261 73.7637 436.582 73.7637C434.902 73.7637 433.541 75.1235 433.541 76.801C433.541 78.4785 434.902 79.8384 436.582 79.8384Z" fill="#040404"/>
<path d="M436.582 98.9302C438.261 98.9302 439.623 97.5703 439.623 95.8928C439.623 94.2153 438.261 92.8555 436.582 92.8555C434.902 92.8555 433.541 94.2153 433.541 95.8928C433.541 97.5703 434.902 98.9302 436.582 98.9302Z" fill="#040404"/>
<path d="M436.583 116.287C437.302 116.287 437.886 115.704 437.886 114.985C437.886 114.266 437.302 113.684 436.583 113.684C435.863 113.684 435.279 114.266 435.279 114.985C435.279 115.704 435.863 116.287 436.583 116.287Z" fill="#040404"/>
<path d="M436.582 69.425C437.782 69.425 438.754 68.4537 438.754 67.2555C438.754 66.0573 437.782 65.0859 436.582 65.0859C435.383 65.0859 434.41 66.0573 434.41 67.2555C434.41 68.4537 435.383 69.425 436.582 69.425Z" fill="#040404"/>
<path d="M436.582 89.3853C438.261 89.3853 439.623 88.0254 439.623 86.3479C439.623 84.6704 438.261 83.3105 436.582 83.3105C434.902 83.3105 433.541 84.6704 433.541 86.3479C433.541 88.0254 434.902 89.3853 436.582 89.3853Z" fill="#040404"/>
<path d="M436.582 107.609C437.782 107.609 438.754 106.637 438.754 105.439C438.754 104.241 437.782 103.27 436.582 103.27C435.383 103.27 434.41 104.241 434.41 105.439C434.41 106.637 435.383 107.609 436.582 107.609Z" fill="#040404"/>
<path d="M417.469 59.0117C418.189 59.0117 418.772 58.4288 418.772 57.7099C418.772 56.991 418.189 56.4082 417.469 56.4082C416.749 56.4082 416.166 56.991 416.166 57.7099C416.166 58.4288 416.749 59.0117 417.469 59.0117Z" fill="#040404"/>
<path d="M417.469 79.8384C419.148 79.8384 420.509 78.4785 420.509 76.801C420.509 75.1235 419.148 73.7637 417.469 73.7637C415.789 73.7637 414.428 75.1235 414.428 76.801C414.428 78.4785 415.789 79.8384 417.469 79.8384Z" fill="#040404"/>
<path d="M417.469 98.9302C419.148 98.9302 420.509 97.5703 420.509 95.8928C420.509 94.2153 419.148 92.8555 417.469 92.8555C415.789 92.8555 414.428 94.2153 414.428 95.8928C414.428 97.5703 415.789 98.9302 417.469 98.9302Z" fill="#040404"/>
<path d="M417.469 116.287C418.189 116.287 418.772 115.704 418.772 114.985C418.772 114.266 418.189 113.684 417.469 113.684C416.749 113.684 416.166 114.266 416.166 114.985C416.166 115.704 416.749 116.287 417.469 116.287Z" fill="#040404"/>
<path d="M417.469 69.425C418.669 69.425 419.641 68.4537 419.641 67.2555C419.641 66.0573 418.669 65.0859 417.469 65.0859C416.269 65.0859 415.297 66.0573 415.297 67.2555C415.297 68.4537 416.269 69.425 417.469 69.425Z" fill="#040404"/>
<path d="M417.469 89.3853C419.148 89.3853 420.509 88.0254 420.509 86.3479C420.509 84.6704 419.148 83.3105 417.469 83.3105C415.789 83.3105 414.428 84.6704 414.428 86.3479C414.428 88.0254 415.789 89.3853 417.469 89.3853Z" fill="#040404"/>
<path d="M417.469 107.609C418.669 107.609 419.641 106.637 419.641 105.439C419.641 104.241 418.669 103.27 417.469 103.27C416.269 103.27 415.297 104.241 415.297 105.439C415.297 106.637 416.269 107.609 417.469 107.609Z" fill="#040404"/>
<path d="M446.139 59.0117C446.859 59.0117 447.442 58.4288 447.442 57.7099C447.442 56.991 446.859 56.4082 446.139 56.4082C445.419 56.4082 444.836 56.991 444.836 57.7099C444.836 58.4288 445.419 59.0117 446.139 59.0117Z" fill="#040404"/>
<path d="M455.698 59.0117C456.418 59.0117 457.001 58.4288 457.001 57.7099C457.001 56.991 456.418 56.4082 455.698 56.4082C454.978 56.4082 454.395 56.991 454.395 57.7099C454.395 58.4288 454.978 59.0117 455.698 59.0117Z" fill="#040404"/>
<path d="M446.139 78.9719C447.338 78.9719 448.311 78.0006 448.311 76.8024C448.311 75.6041 447.338 74.6328 446.139 74.6328C444.939 74.6328 443.967 75.6041 443.967 76.8024C443.967 78.0006 444.939 78.9719 446.139 78.9719Z" fill="#040404"/>
<path d="M455.698 78.1034C456.418 78.1034 457.001 77.5206 457.001 76.8017C457.001 76.0828 456.418 75.5 455.698 75.5C454.978 75.5 454.395 76.0828 454.395 76.8017C454.395 77.5206 454.978 78.1034 455.698 78.1034Z" fill="#040404"/>
<path d="M446.139 98.0637C447.338 98.0637 448.311 97.0924 448.311 95.8941C448.311 94.6959 447.338 93.7246 446.139 93.7246C444.939 93.7246 443.967 94.6959 443.967 95.8941C443.967 97.0924 444.939 98.0637 446.139 98.0637Z" fill="#040404"/>
<path d="M455.698 97.1952C456.418 97.1952 457.001 96.6124 457.001 95.8935C457.001 95.1746 456.418 94.5918 455.698 94.5918C454.978 94.5918 454.395 95.1746 454.395 95.8935C454.395 96.6124 454.978 97.1952 455.698 97.1952Z" fill="#040404"/>
<path d="M446.139 116.287C446.859 116.287 447.442 115.704 447.442 114.985C447.442 114.266 446.859 113.684 446.139 113.684C445.419 113.684 444.836 114.266 444.836 114.985C444.836 115.704 445.419 116.287 446.139 116.287Z" fill="#040404"/>
<path d="M455.698 116.287C456.418 116.287 457.001 115.704 457.001 114.985C457.001 114.266 456.418 113.684 455.698 113.684C454.978 113.684 454.395 114.266 454.395 114.985C454.395 115.704 454.978 116.287 455.698 116.287Z" fill="#040404"/>
<path d="M446.139 69.425C447.338 69.425 448.311 68.4537 448.311 67.2555C448.311 66.0573 447.338 65.0859 446.139 65.0859C444.939 65.0859 443.967 66.0573 443.967 67.2555C443.967 68.4537 444.939 69.425 446.139 69.425Z" fill="#040404"/>
<path d="M455.698 68.5566C456.418 68.5566 457.001 67.9738 457.001 67.2548C457.001 66.5359 456.418 65.9531 455.698 65.9531C454.978 65.9531 454.395 66.5359 454.395 67.2548C454.395 67.9738 454.978 68.5566 455.698 68.5566Z" fill="#040404"/>
<path d="M446.139 88.5168C447.338 88.5168 448.311 87.5455 448.311 86.3473C448.311 85.1491 447.338 84.1777 446.139 84.1777C444.939 84.1777 443.967 85.1491 443.967 86.3473C443.967 87.5455 444.939 88.5168 446.139 88.5168Z" fill="#040404"/>
<path d="M455.698 87.6503C456.418 87.6503 457.001 87.0675 457.001 86.3486C457.001 85.6297 456.418 85.0469 455.698 85.0469C454.978 85.0469 454.395 85.6297 454.395 86.3486C454.395 87.0675 454.978 87.6503 455.698 87.6503Z" fill="#040404"/>
<path d="M446.139 107.609C447.338 107.609 448.311 106.637 448.311 105.439C448.311 104.241 447.338 103.27 446.139 103.27C444.939 103.27 443.967 104.241 443.967 105.439C443.967 106.637 444.939 107.609 446.139 107.609Z" fill="#040404"/>
<path d="M455.698 106.742C456.418 106.742 457.001 106.159 457.001 105.44C457.001 104.721 456.418 104.139 455.698 104.139C454.978 104.139 454.395 104.721 454.395 105.44C454.395 106.159 454.978 106.742 455.698 106.742Z" fill="#040404"/>
</g>
<defs>
<clipPath id="clip0_538_13594">
<rect width="457" height="151" fill="white"/>
</clipPath>
</defs>
</svg>
